<svg xmlns="http://www.w3.org/2000/svg" width="48.818" height="45.106" viewBox="0 0 48.818 45.106">
  <path id="Fill_16" data-name="Fill 16" d="M45.968,16.048C46.476,8.064,40.9,1.951,34.84,1.533A11.44,11.44,0,0,0,23.334,9.165,11.593,11.593,0,0,0,12.892.023C6.835-.394.533,4.9.025,12.888-.743,24.985,16.279,40.066,20.6,41.82l.253.095.362.08.031,0,.032,0a1.568,1.568,0,0,0,.366-.029l.264-.061C26.42,40.764,45.2,28.146,45.968,16.048" transform="matrix(0.998, -0.07, 0.07, 0.998, 0, 3.209)" fill="#dc3a61"/>
</svg>
